<?xml version="1.0" encoding="UTF-8"?>
<svg version="1.1" xmlns="http://www.w3.org/2000/svg" width="600" height="600">
<path d="M0 0 C1.14561147 1.15790344 2.28464696 2.32238741 3.4140625 3.49609375 C4.93107523 5.07205379 4.93107523 5.07205379 7.3203125 6.83984375 C10.17738045 9.19692481 12.43652914 11.7932494 14.83203125 14.609375 C16.17509063 16.15824702 17.55427344 17.67641185 18.96484375 19.1640625 C62.82440943 65.49663852 89.33808619 132.29550155 90.8203125 195.90234375 C90.84077637 196.74587402 90.86124023 197.5894043 90.88232422 198.45849609 C92.35530806 269.02781299 69.77340389 338.59413648 22.8203125 391.90234375 C22.19640625 392.62550781 21.5725 393.34867187 20.9296875 394.09375 C19.2426655 396.04486189 17.53529545 397.97577199 15.8203125 399.90234375 C15.03914063 400.78792969 14.25796875 401.67351562 13.453125 402.5859375 C9.13333872 407.42436073 4.80768781 412.02218257 -0.1640625 416.19140625 C-1.53912738 417.35861249 -2.88233874 418.56414317 -4.1953125 419.80078125 C-22.59942706 437.11094494 -44.50778119 451.32593973 -67.34716797 462.03466797 C-69.11733994 462.87282294 -70.86968958 463.74830393 -72.62109375 464.625 C-138.07192188 496.72881402 -217.03418274 498.55844619 -285.48510742 475.35058594 C-316.2621267 464.49819666 -344.89547946 448.52979752 -370.1796875 427.90234375 C-370.70481934 427.47872559 -371.22995117 427.05510742 -371.77099609 426.61865234 C-386.55773977 414.62451978 -400.65713497 401.08450916 -412.1796875 385.90234375 C-413.17677795 384.6432566 -414.1756217 383.38555683 -415.17578125 382.12890625 C-444.54048342 344.92543318 -462.89134678 301.43378897 -471.1796875 254.90234375 C-471.34484863 254.02787598 -471.51000977 253.1534082 -471.68017578 252.25244141 C-477.00598208 223.14500987 -476.64549021 189.95286998 -471.1796875 160.90234375 C-471.01339844 159.95488281 -470.84710938 159.00742188 -470.67578125 158.03125 C-459.08532831 92.69543748 -423.47200907 28.50601732 -370.1796875 -12.09765625 C-368.9194771 -13.09627494 -367.66045669 -14.09639636 -366.40234375 -15.09765625 C-286.80088549 -77.91324266 -175.28865898 -92.66315321 0 0 Z M-176.1796875 29.90234375 C-177.40889822 32.36076519 -177.30724906 33.96045551 -177.31111526 36.71036243 C-177.31495641 37.73189594 -177.31879755 38.75342945 -177.3227551 39.80591851 C-177.32188862 40.93673008 -177.32102213 42.06754165 -177.32012939 43.23262024 C-177.32310052 44.4272821 -177.32607164 45.62194396 -177.3291328 46.8528077 C-177.33632858 50.17931289 -177.33899331 53.50576646 -177.33973026 56.83227575 C-177.34157786 60.41587937 -177.34912372 63.99947172 -177.35586548 67.58306885 C-177.36946155 75.42394361 -177.37547553 83.26481328 -177.37987614 91.10569787 C-177.38263647 95.99937756 -177.38687344 100.89305527 -177.39138031 105.78673363 C-177.40357476 119.3294592 -177.41387365 132.87218318 -177.4172554 146.41491413 C-177.41747497 147.28209618 -177.41769453 148.14927822 -177.41792075 149.04273851 C-177.41813903 149.91202477 -177.41835731 150.78131104 -177.4185822 151.67693931 C-177.41902567 153.43851618 -177.41947223 155.20009305 -177.41992188 156.96166992 C-177.4201433 157.83547749 -177.42036473 158.70928507 -177.42059287 159.60957166 C-177.42454157 173.77101665 -177.441997 187.93241021 -177.4652814 202.09383533 C-177.48898094 216.62475431 -177.50145662 231.15564746 -177.50262332 245.68658608 C-177.50354088 253.84855873 -177.50931352 262.01046437 -177.52744293 270.17241859 C-177.54282511 277.1221744 -177.54797557 284.0718425 -177.53970483 291.02161209 C-177.53579157 294.56855323 -177.53676059 298.11531764 -177.55076218 301.66223717 C-177.56579417 305.50527371 -177.55765454 309.34806002 -177.54718018 313.19111633 C-177.55523658 314.31523574 -177.56329298 315.43935514 -177.57159352 316.59753877 C-177.56500368 317.62689552 -177.55841383 318.65625227 -177.5516243 319.71680164 C-177.55222139 320.60388335 -177.55281847 321.49096506 -177.55343366 322.40492803 C-177.09218023 325.48707763 -175.98312114 327.38209875 -174.1796875 329.90234375 C-170.54558952 331.71939274 -166.30631202 331.17275093 -162.3046875 331.21484375 C-160.93763672 331.25834961 -160.93763672 331.25834961 -159.54296875 331.30273438 C-158.66253906 331.31111328 -157.78210938 331.31949219 -156.875 331.328125 C-156.07078613 331.34270752 -155.26657227 331.35729004 -154.43798828 331.37231445 C-151.29918584 330.71910422 -150.20225013 329.35032187 -148.1796875 326.90234375 C-147.6071891 324.51241224 -147.6071891 324.51241224 -147.72799683 321.88825989 C-147.72853561 320.87765503 -147.7290744 319.86705017 -147.72962952 318.82582092 C-147.75037033 317.72290207 -147.77111115 316.61998322 -147.79248047 315.48364258 C-147.80106834 313.73417831 -147.80106834 313.73417831 -147.80982971 311.94937134 C-147.82394627 309.41478872 -147.84677287 306.88024322 -147.87722397 304.34580421 C-147.92219094 300.33116796 -147.93844862 296.31748379 -147.94363403 292.30265808 C-147.96344135 280.88747365 -148.02250532 269.47294243 -148.14160156 258.05834961 C-148.2070837 251.75187577 -148.23646219 245.44626379 -148.22692406 239.13944644 C-148.22357093 235.80488427 -148.24485544 232.47477052 -148.29992294 229.14035988 C-148.36014159 225.41481698 -148.35844553 221.69391027 -148.34326172 217.96801758 C-148.37614792 216.87521988 -148.40903412 215.78242218 -148.44291687 214.6565094 C-148.36643731 209.87212861 -148.09179199 207.01339646 -144.99518204 203.24135399 C-142.48215899 200.94751065 -139.94184096 198.88624442 -137.1796875 196.90234375 C-136.57544889 196.45949948 -135.97121029 196.01665522 -135.34866142 195.56039143 C-119.90997669 185.01441245 -99.66392824 179.55081169 -81.14453125 182.36328125 C-72.04719958 184.53845197 -64.79359078 188.94220048 -59.45703125 196.703125 C-53.62512615 206.74398913 -51.87800108 217.21436396 -51.90844727 228.66699219 C-51.90322052 229.70390701 -51.89799377 230.74082184 -51.89260864 231.80915833 C-51.88242018 234.04510751 -51.8765973 236.28108008 -51.87472725 238.5170517 C-51.87104753 242.05617749 -51.85427959 245.59502712 -51.83396912 249.13409424 C-51.77869036 259.19074379 -51.74780181 269.24743226 -51.72338867 279.30419922 C-51.70752791 285.46787706 -51.67733421 291.63135508 -51.63862419 297.7949295 C-51.6269716 300.14087049 -51.62104382 302.48684715 -51.62094307 304.83281708 C-51.62075133 308.1071824 -51.60251013 311.380994 -51.58032227 314.65527344 C-51.58489944 315.62368668 -51.58947662 316.59209991 -51.5941925 317.58985901 C-51.54143594 322.47945051 -51.44876643 325.97514658 -48.1796875 329.90234375 C-44.55536953 331.71450274 -40.35864212 331.21546073 -36.3671875 331.27734375 C-35.46419922 331.31472656 -34.56121094 331.35210937 -33.63085938 331.390625 C-32.75365234 331.40222656 -31.87644531 331.41382813 -30.97265625 331.42578125 C-30.1736792 331.44560059 -29.37470215 331.46541992 -28.55151367 331.48583984 C-24.83963002 330.57267444 -23.50994618 328.91319654 -21.1796875 325.90234375 C-20.44849437 322.57093944 -20.51665741 319.30524537 -20.56445312 315.90576172 C-20.55612961 314.39962814 -20.55612961 314.39962814 -20.54763794 312.86306763 C-20.53582073 309.53973766 -20.56016278 306.21776633 -20.5859375 302.89453125 C-20.58764996 300.57064882 -20.58758154 298.24676447 -20.58581543 295.92288208 C-20.58747055 291.04198814 -20.60618618 286.16155237 -20.63769531 281.28076172 C-20.67706422 275.07561546 -20.68177734 268.87107781 -20.67423248 262.66583061 C-20.67113379 257.85770258 -20.68339032 253.04970695 -20.70036316 248.24161148 C-20.7073196 245.95746825 -20.71052679 243.67331 -20.70967102 241.38915634 C-20.72473405 214.89564602 -22.89794182 189.78459017 -41.3046875 169.15234375 C-56.26382468 155.24714578 -76.0973473 152.18413398 -95.70751953 152.76611328 C-113.14845812 153.72720786 -130.29671366 161.87532242 -143.89746094 172.54345703 C-144.7013324 173.1727713 -145.50520386 173.80208557 -146.33343506 174.45046997 C-146.94269836 174.92958832 -147.55196167 175.40870667 -148.1796875 175.90234375 C-148.17507854 175.15966153 -148.17046957 174.41697931 -148.16572094 173.65179157 C-148.05531103 155.58274289 -147.97256472 137.51376152 -147.92062664 119.44444752 C-147.89484228 110.70625 -147.85968749 101.96827762 -147.80249023 93.23022461 C-147.75266216 85.61433646 -147.72039817 77.99861135 -147.70924503 70.38256472 C-147.70272517 66.3496388 -147.6873975 62.31717931 -147.65103722 58.28440285 C-147.61708672 54.48812541 -147.60663233 50.6925063 -147.61414909 46.89609146 C-147.61277409 45.50329319 -147.60283504 44.11047281 -147.58366013 42.71780586 C-147.08955228 34.53810147 -147.08955228 34.53810147 -150.574646 27.57440186 C-153.24048134 25.86332294 -154.55609459 25.2703909 -157.68359375 25.2734375 C-158.50666016 25.27150391 -159.32972656 25.26957031 -160.17773438 25.26757812 C-161.02400391 25.29142578 -161.87027344 25.31527344 -162.7421875 25.33984375 C-163.59232422 25.32888672 -164.44246094 25.31792969 -165.31835938 25.30664062 C-170.2834518 25.36505348 -173.13195713 25.57731524 -176.1796875 29.90234375 Z M-361.78027344 184.23681641 C-377.6465661 203.12025125 -385.74247427 227.42900557 -383.92578125 252.0390625 C-381.53547473 276.94605642 -370.24763519 299.52849567 -351.1796875 315.90234375 C-333.13091488 330.05969723 -311.16198793 337.2644413 -288.1796875 335.90234375 C-265.6079064 333.05847847 -245.95078128 323.29235032 -231.7421875 305.27734375 C-231.08524902 304.45121582 -231.08524902 304.45121582 -230.41503906 303.60839844 C-228.0070097 300.44034077 -226.46492063 297.90952144 -226.1796875 293.90234375 C-228.1828524 288.46518189 -233.44997701 284.9516545 -238.1796875 281.90234375 C-240.10054204 280.89191112 -240.10054204 280.89191112 -242.1796875 280.90234375 C-245.91901176 282.66683739 -248.40817107 285.00682389 -251.1796875 288.02734375 C-263.21593001 300.26319227 -276.97877409 306.93163148 -294.3046875 307.15234375 C-309.52537327 307.00355894 -324.12823383 301.62328666 -335.1796875 290.90234375 C-348.55028077 275.56186566 -353.51118874 257.23772284 -352.38671875 237.25830078 C-350.98011171 221.25151076 -343.96699997 206.86010723 -332.1796875 195.90234375 C-317.72933979 184.06898814 -302.41589716 181.42246086 -284.1796875 182.90234375 C-279.86722139 183.7403755 -276.13760299 185.01644044 -272.1796875 186.90234375 C-271.00792969 187.42828125 -271.00792969 187.42828125 -269.8125 187.96484375 C-264.30170058 190.71070921 -260.00043376 194.51252252 -255.5390625 198.71875 C-253.17327068 200.90828249 -250.71825074 202.91740335 -248.1796875 204.90234375 C-243.91055857 203.46374839 -240.94577449 201.33419502 -237.4921875 198.46484375 C-236.53957031 197.68238281 -235.58695313 196.89992188 -234.60546875 196.09375 C-232.03599749 193.95284899 -232.03599749 193.95284899 -230.1796875 190.90234375 C-230.06189093 184.89471884 -232.29490576 182.00917732 -236.24609375 177.8671875 C-237.20322266 176.89458984 -237.20322266 176.89458984 -238.1796875 175.90234375 C-238.93572266 175.03802734 -238.93572266 175.03802734 -239.70703125 174.15625 C-251.25100319 161.43731909 -268.78432059 154.18064782 -285.67333984 152.6809082 C-315.36684754 151.30940386 -341.90104532 161.90513369 -361.78027344 184.23681641 Z " fill="#CCC9C3" transform="translate(492.1796875,91.09765625)"/>
</svg>
